<svg id="Ebene_1" data-name="Ebene 1" xmlns="http://www.w3.org/2000/svg" viewBox="0 0 394.48 189.4"><defs><style>.cls-1{fill:#010101;}.cls-2{fill:#00508c;}</style></defs><title>soka-dach-logo</title><path class="cls-1" d="M107.77,111.52a18.4,18.4,0,0,0,9.31,2.63c5.31,0,8.41-2.8,8.41-6.86,0-3.76-2.15-5.91-7.58-8-6.56-2.33-10.62-5.73-10.62-11.4,0-6.26,5.19-10.92,13-10.92a18.24,18.24,0,0,1,8.89,2l-1.43,4.24a16,16,0,0,0-7.64-1.91c-5.49,0-7.58,3.28-7.58,6,0,3.76,2.45,5.61,8,7.76,6.8,2.62,10.27,5.91,10.27,11.81,0,6.21-4.59,11.58-14.08,11.58-3.88,0-8.12-1.13-10.26-2.57Z"/><path class="cls-1" d="M172.28,97.32c0,13.84-8.41,21.18-18.68,21.18-10.62,0-18.08-8.23-18.08-20.41,0-12.77,7.94-21.12,18.68-21.12,11,0,18.08,8.41,18.08,20.34M141.07,98c0,8.6,4.65,16.29,12.83,16.29s12.89-7.58,12.89-16.71c0-8-4.18-16.35-12.83-16.35S141.07,89.15,141.07,98"/><path class="cls-1" d="M178.88,77.63h5.19V97h.18c1.08-1.55,2.15-3,3.16-4.3l12.29-15.1h6.44L191.59,94.7l15.69,23.15h-6.14L187.89,98.1l-3.82,4.41v15.34h-5.19Z"/><path class="cls-1" d="M218.32,105.2l-4.18,12.65h-5.37l13.66-40.22h6.26l13.72,40.22h-5.55l-4.3-12.65Zm13.19-4.06-3.94-11.58c-.89-2.62-1.49-5-2.09-7.34h-.12c-.6,2.38-1.25,4.83-2,7.28l-3.94,11.63Z"/><path class="cls-2" d="M106.46,124.06a74.45,74.45,0,0,1,11-.84c7.46,0,12.77,1.73,16.29,5s5.67,7.94,5.67,14.44-2,11.94-5.79,15.63-10,5.79-17.78,5.79a84.5,84.5,0,0,1-9.43-.48Zm5.19,35.56a32.79,32.79,0,0,0,5.25.3c11.1,0,17.12-6.2,17.12-17.07.06-9.48-5.31-15.51-16.29-15.51a29.24,29.24,0,0,0-6.08.54Z"/><path class="cls-2" d="M149.82,151.09l-4.18,12.65h-5.37l13.67-40.22h6.26l13.72,40.22h-5.55l-4.3-12.65ZM163,147l-3.94-11.57c-.9-2.63-1.5-5-2.09-7.34h-.12c-.59,2.39-1.25,4.84-2,7.28L150.9,147Z"/><path class="cls-2" d="M205.88,162.43a25.75,25.75,0,0,1-10.62,1.91c-11.34,0-19.87-7.16-19.87-20.35,0-12.59,8.53-21.12,21-21.12,5,0,8.18,1.07,9.55,1.79l-1.25,4.24a18.9,18.9,0,0,0-8.12-1.67c-9.42,0-15.69,6-15.69,16.59,0,9.85,5.67,16.17,15.46,16.17a20.74,20.74,0,0,0,8.47-1.67Z"/><polygon class="cls-2" points="217.57 123.52 217.57 140.35 237.03 140.35 237.03 123.52 242.28 123.52 242.28 163.74 237.03 163.74 237.03 144.88 217.57 144.88 217.57 163.74 212.38 163.74 212.38 123.52 217.57 123.52"/><path class="cls-2" d="M67,60.68c23.59-12,78.65-43.57,78.65-43.57S222.31,51.66,245.9,60.68,363.45,106,363.45,106,289.34,85.34,253.92,71.9C223.58,60.38,146.68,28.61,146.68,28.61S110.24,54.67,96.47,62.93,38.36,107.85,31.59,89.22C28,79.23,43.39,72.7,67,60.68"/></svg>